<svg width="38" height="37" viewBox="0 0 38 37" fill="none" xmlns="http://www.w3.org/2000/svg">
<path d="M4.5748 3.74957C5.90399 3.74967 7.03628 4.73208 7.24536 6.06696L7.86379 10.0191H29.2167C30.34 10.0191 31.1621 11.0959 30.8838 12.2027L29.0151 19.6363C28.5977 21.296 27.1273 22.4574 25.4428 22.4576H9.81029L10.2146 25.0386C10.3097 25.6453 10.8242 26.0914 11.4284 26.0914H27.7331V27.5914H11.4284C10.099 27.5914 8.96677 26.6091 8.75781 25.274L5.78861 6.30328C5.69364 5.69648 5.17899 5.24967 4.5748 5.24957H0V3.74957H4.5748ZM9.57598 20.9576H25.4428C26.4533 20.9574 27.3357 20.2608 27.5861 19.2652L29.4549 11.8306C29.4946 11.6725 29.3772 11.5191 29.2167 11.5191H8.09906L9.57598 20.9576Z" fill="black"/>
<path d="M14.768 33.2659C14.768 32.3516 14.0793 31.7054 13.3429 31.7054C12.6067 31.7055 11.9179 32.3517 11.9179 33.2659C11.918 34.18 12.6068 34.8254 13.3429 34.8255V36.3255C11.7913 36.3254 10.5244 35.04 10.4467 33.4232L10.4429 33.2659C10.4429 31.5759 11.7413 30.2055 13.3429 30.2054C14.9447 30.2054 16.243 31.5758 16.243 33.2659L16.2392 33.4232C16.1614 35.04 14.8946 36.3255 13.3429 36.3255V34.8255C14.0792 34.8255 14.7678 34.18 14.768 33.2659Z" fill="black"/>
<path d="M27.5292 33.2659C27.5292 32.3516 26.8405 31.7054 26.1042 31.7054C25.3679 31.7055 24.6791 32.3517 24.6791 33.2659C24.6793 34.18 25.368 34.8254 26.1042 34.8255V36.3255C24.5526 36.3254 23.2857 35.04 23.2079 33.4232L23.2041 33.2659C23.2041 31.5759 24.5025 30.2055 26.1042 30.2054C27.7059 30.2054 29.0042 31.5758 29.0042 33.2659L29.0004 33.4232C28.9227 35.04 27.6558 36.3255 26.1042 36.3255V34.8255C26.8404 34.8255 27.5291 34.18 27.5292 33.2659Z" fill="black"/>
<path d="M38 7.5C38 11.6421 34.6421 15 30.5 15C26.3579 15 23 11.6421 23 7.5C23 3.35786 26.3579 0 30.5 0C34.6421 0 38 3.35786 38 7.5Z" fill="#E8AA31"/>
<path d="M30.6718 10.064C30.2345 10.064 29.8425 9.952 29.4958 9.728C29.1545 9.504 28.8825 9.17867 28.6798 8.752C28.4825 8.32533 28.3838 7.808 28.3838 7.2C28.3838 6.592 28.4825 6.07467 28.6798 5.648C28.8825 5.22133 29.1545 4.896 29.4958 4.672C29.8425 4.448 30.2345 4.336 30.6718 4.336C31.1038 4.336 31.4931 4.448 31.8398 4.672C32.1865 4.896 32.4585 5.22133 32.6558 5.648C32.8531 6.07467 32.9518 6.592 32.9518 7.2C32.9518 7.808 32.8531 8.32533 32.6558 8.752C32.4585 9.17867 32.1865 9.504 31.8398 9.728C31.4931 9.952 31.1038 10.064 30.6718 10.064ZM30.6718 9.352C30.9651 9.352 31.2211 9.272 31.4398 9.112C31.6638 8.952 31.8371 8.712 31.9598 8.392C32.0878 8.072 32.1518 7.67467 32.1518 7.2C32.1518 6.72533 32.0878 6.328 31.9598 6.008C31.8371 5.688 31.6638 5.448 31.4398 5.288C31.2211 5.128 30.9651 5.048 30.6718 5.048C30.3785 5.048 30.1198 5.128 29.8958 5.288C29.6718 5.448 29.4958 5.688 29.3678 6.008C29.2451 6.328 29.1838 6.72533 29.1838 7.2C29.1838 7.67467 29.2451 8.072 29.3678 8.392C29.4958 8.712 29.6718 8.952 29.8958 9.112C30.1198 9.272 30.3785 9.352 30.6718 9.352Z" fill="white"/>
</svg>
