<svg width="32" height="34" viewBox="0 0 32 34" fill="none" xmlns="http://www.w3.org/2000/svg">
<path d="M4.65234 0.749573C6.00406 0.749671 7.15554 1.73208 7.36816 3.06696L7.99707 7.0191H29.7119C30.8543 7.0191 31.6902 8.09594 31.4072 9.2027L29.5068 16.6363C29.0824 18.296 27.5871 19.4574 25.874 19.4576H9.97656L10.3877 22.0386C10.4844 22.6453 11.0077 23.0914 11.6221 23.0914H28.2031V24.5914H11.6221C10.2702 24.5914 9.11875 23.6091 8.90625 22.274L5.88672 3.30328C5.79014 2.69648 5.26676 2.24967 4.65234 2.24957H0V0.749573H4.65234ZM9.73828 17.9576H25.874C26.9017 17.9574 27.799 17.2608 28.0537 16.2652L29.9541 8.83063C29.9945 8.67254 29.8751 8.5191 29.7119 8.5191H8.23633L9.73828 17.9576Z" fill="black"/>
<path d="M15.0186 30.2659C15.0186 29.3516 14.3182 28.7054 13.5693 28.7054C12.8206 28.7055 12.1201 29.3517 12.1201 30.2659C12.1203 31.18 12.8207 31.8254 13.5693 31.8255V33.3255C11.9914 33.3254 10.7031 32.04 10.624 30.4232L10.6201 30.2659C10.6201 28.5759 11.9405 27.2055 13.5693 27.2054C15.1982 27.2054 16.5186 28.5758 16.5186 30.2659L16.5146 30.4232C16.4356 32.04 15.1473 33.3255 13.5693 33.3255V31.8255C14.3181 31.8255 15.0184 31.18 15.0186 30.2659Z" fill="black"/>
<path d="M27.9956 30.2659C27.9956 29.3516 27.2952 28.7054 26.5464 28.7054C25.7976 28.7055 25.0972 29.3517 25.0972 30.2659C25.0973 31.18 25.7977 31.8254 26.5464 31.8255V33.3255C24.9685 33.3254 23.6801 32.04 23.6011 30.4232L23.5972 30.2659C23.5972 28.5759 24.9176 27.2055 26.5464 27.2054C28.1753 27.2054 29.4956 28.5758 29.4956 30.2659L29.4917 30.4232C29.4126 32.04 28.1244 33.3255 26.5464 33.3255V31.8255C27.2951 31.8255 27.9954 31.18 27.9956 30.2659Z" fill="black"/>
</svg>
